<svg width="436" height="55" viewBox="0 0 436 55" fill="none" xmlns="http://www.w3.org/2000/svg">
<rect x="1.25" y="38.25" width="15.5" height="15.5" stroke="#9062D4" stroke-width="2.5"/>
<rect x="23.25" y="16.25" width="15.5" height="15.5" stroke="#9062D4" stroke-width="2.5"/>
<rect x="23.25" y="38.25" width="15.5" height="15.5" stroke="#9062D4" stroke-width="2.5"/>
<path d="M88.3359 10.4375H90.8672C98.7266 10.4375 103.805 12.6953 106.102 17.2109C106.805 18.0859 107.156 19 107.156 19.9531V20.1641C107.156 22.5234 103.914 24.9922 97.4297 27.5703V27.7812C100.523 30.5 102.07 32.5391 102.07 33.8984V35.1641C102.07 38.5859 91.4297 43.6641 70.1484 50.3984L65.7188 51.4531L65.4844 51.2422L65.7188 51.0312V50.3984C65 50.3984 64.6406 50.2578 64.6406 49.9766L64.4297 49.1328L66.5625 48.2891V48.0781H66.3516L63.5859 48.5V48.0781C64.5703 47.9375 65.0625 47.7266 65.0625 47.4453H64.8516L63.5859 47.8672L63.375 47.6562H63.1641L61.8984 47.8672H61.6875V47.6562L62.1094 47.0234V46.8125H61.8984L60.8438 47.0234L60.6328 46.8125V46.6016C61.9609 45.4609 63.0859 44.8906 64.0078 44.8906L63.5859 42.7812C64.7734 39.875 69.7109 31.9844 78.3984 19.1094C75.7422 19.1094 73.9766 18.4062 73.1016 17C72.5547 16.8438 71.9922 15.8516 71.4141 14.0234C71.4141 12.3203 74.5859 11.2656 80.9297 10.8594L88.3359 10.4375ZM87.2812 22.6953C91.5312 21.2266 95.125 19.75 98.0625 18.2656C98.0625 17.8438 96.4375 17.6328 93.1875 17.6328H90.2344C88.2656 20.5078 87.2812 22.1953 87.2812 22.6953ZM76.5 39.8281V40.0391C83.7188 37.6328 88.8594 35.2344 91.9219 32.8438H87.9141C82.6953 32.8438 80.0859 33.3359 80.0859 34.3203L76.5 39.8281ZM117.844 7.10938H119.086C122.711 8.4375 124.523 10.1797 124.523 12.3359C123.586 13.8672 119.828 21.7188 113.25 35.8906L111.586 38.8203L124.523 37.9766L126.188 38.1875H127.43V38.6094H126.82V39.2422H128.062V39.6641L125.977 40.6953L126.398 41.9375H127.641L129.516 43.8359C129.516 44.2109 125.414 44.9688 117.211 46.1094C113.742 46.8125 109.016 48 103.031 49.6719H102.82C102.055 49.6719 100.734 48.5547 98.8594 46.3203V46.1094L99.0703 45.9219L98.8594 45.7109V43.625C98.8594 42.9219 99.4844 42.0859 100.734 41.1172C107.297 28.9766 112.023 18.6875 114.914 10.25L114.703 9.61719C115.578 7.94531 116.625 7.10938 117.844 7.10938ZM157.664 8.9375H157.898C159.383 8.9375 160.883 10.3672 162.398 13.2266L162.633 13.4609V14.5156C162.633 15.1875 161.508 15.7656 159.258 16.25V16.4609C162.711 20.7422 164.438 24.75 164.438 28.4844V29.5625C164.438 38.8125 160.453 44.7578 152.484 47.3984C149.766 48.1172 147.516 48.4766 145.734 48.4766H143.25C136.25 48.4766 131.211 44.8984 128.133 37.7422C127.695 37.6484 127.398 36.3594 127.242 33.875V32.3516C127.242 25.4141 132.273 19.1172 142.336 13.4609C148.695 10.4453 153.805 8.9375 157.664 8.9375ZM135.586 34.2969V34.5078C135.586 36.9922 137.164 38.4219 140.32 38.7969H142.125C146.984 38.7969 151.492 36.0078 155.648 30.4297C156.289 28.9609 156.734 27.0234 156.984 24.6172C156.844 22.6172 156.625 21.3984 156.328 20.9609L156.539 20.3281C156.133 18.1719 155.836 17.0938 155.648 17.0938C151.227 17.6875 146.117 20.5547 140.32 25.6953C137.164 28.7578 135.586 31.625 135.586 34.2969ZM192.703 10.3438H194.227C198.008 10.3438 200.711 11.4375 202.336 13.625V15.5938C202.336 18.375 201.312 19.7656 199.266 19.7656C197.781 19.3281 196.18 19.1094 194.461 19.1094C183.742 19.1094 176.375 24.2109 172.359 34.4141L171.914 36.6172V37.2734C171.914 39.4766 173.375 40.8594 176.297 41.4219C178.125 41.8594 180.531 42.0781 183.516 42.0781H187.453V42.5234H186.562V42.7344C186.906 42.7344 187.273 43.0234 187.664 43.6016H187.875V44.2578L185.484 44.4922V44.7031H185.906L185.484 46.0156H185.906V46.4609H185.484V46.6719C186.062 46.6719 186.352 46.9609 186.352 47.5391H186.797L186.562 47.3281V47.1172L186.797 46.8828H188.109V47.3281L188.32 47.5391L188.109 47.7734H187.453V47.9844L187.875 48.4297H188.531L188.32 48.1953V47.9844L188.977 47.7734L189.633 47.9844C189.633 49.2969 184.531 49.9531 174.328 49.9531C167.891 49.9531 163.367 46.8203 160.758 40.5547V37.6953C160.758 30.9297 165.352 23.7109 174.539 16.0391C179.961 12.2422 186.016 10.3438 192.703 10.3438ZM187.875 42.9453H189.188V43.3906H187.875V42.9453ZM211.172 8.9375H211.781C212.625 8.9375 213.852 9.82031 215.461 11.5859L216.07 13.2266V13.625C216.07 14.6875 215.117 16.5312 213.211 19.1562H213.398L231.797 9.75781H232.008C232.008 10.0234 231.805 10.1562 231.398 10.1562V10.3672H231.797L233.227 9.75781L233.438 9.94531V10.1562L233.648 9.94531H234.656C234.656 10.2266 234.453 10.3672 234.047 10.3672L234.258 10.9766L235.688 10.7656L233.039 13.2266L232.406 13.4375V13.625L234.656 13.2266C234.656 13.4609 234.117 13.8047 233.039 14.2578L233.438 14.6562L233.648 14.4453H233.836L234.469 14.6562V14.8672L234.047 15.4766C234.734 15.4766 235.078 15.75 235.078 16.2969L219.141 25.4844V25.6953C220.641 31.3828 221.867 37.7188 222.82 44.7031C223.086 44.7031 223.289 45.5156 223.43 47.1406L220.969 48.1719L220.758 47.9609H220.57L218.32 48.9922C215.18 46.6641 213.609 44.1406 213.609 41.4219L210.961 30.3828H210.75C206.156 32.8828 203.773 34.7969 203.602 36.125L200.32 41.2344C199.977 41.2344 199.367 42.1875 198.492 44.0938H198.094V43.8828L198.281 43.0625V42.8516H198.094L197.883 43.4609L197.672 43.2734H197.461L196.453 44.4922V44.7031H196.641L197.461 43.4609H197.672V43.8828C197.453 44.6953 196.906 45.1016 196.031 45.1016C194.594 47.9453 193.844 49.9219 193.781 51.0312H193.172C193.172 50.4844 192.898 50.2109 192.352 50.2109L191.133 49.8125L190.922 49.6016H190.734L189.703 49.8125C189.703 49.2656 189.43 48.9922 188.883 48.9922L188.273 47.5625C190.32 41.5781 195.227 31.7656 202.992 18.125C206.68 12.3437 209.406 9.28125 211.172 8.9375ZM198.281 42.0312H198.703L199.102 41.2344V41.0234H198.891C198.656 41.0234 198.453 41.3594 198.281 42.0312ZM258.305 10.4375H260.836C268.695 10.4375 273.773 12.6953 276.07 17.2109C276.773 18.0859 277.125 19 277.125 19.9531V20.1641C277.125 22.5234 273.883 24.9922 267.398 27.5703V27.7812C270.492 30.5 272.039 32.5391 272.039 33.8984V35.1641C272.039 38.5859 261.398 43.6641 240.117 50.3984L235.688 51.4531L235.453 51.2422L235.688 51.0312V50.3984C234.969 50.3984 234.609 50.2578 234.609 49.9766L234.398 49.1328L236.531 48.2891V48.0781H236.32L233.555 48.5V48.0781C234.539 47.9375 235.031 47.7266 235.031 47.4453H234.82L233.555 47.8672L233.344 47.6562H233.133L231.867 47.8672H231.656V47.6562L232.078 47.0234V46.8125H231.867L230.812 47.0234L230.602 46.8125V46.6016C231.93 45.4609 233.055 44.8906 233.977 44.8906L233.555 42.7812C234.742 39.875 239.68 31.9844 248.367 19.1094C245.711 19.1094 243.945 18.4062 243.07 17C242.523 16.8438 241.961 15.8516 241.383 14.0234C241.383 12.3203 244.555 11.2656 250.898 10.8594L258.305 10.4375ZM257.25 22.6953C261.5 21.2266 265.094 19.75 268.031 18.2656C268.031 17.8438 266.406 17.6328 263.156 17.6328H260.203C258.234 20.5078 257.25 22.1953 257.25 22.6953ZM246.469 39.8281V40.0391C253.688 37.6328 258.828 35.2344 261.891 32.8438H257.883C252.664 32.8438 250.055 33.3359 250.055 34.3203L246.469 39.8281ZM298.336 9.73438C298.336 10.2656 298.602 10.5312 299.133 10.5312V10.9297H298.523V11.1406C299.195 11.1406 299.531 11.2734 299.531 11.5391V11.75H298.734C298.734 12.1562 299.133 12.3594 299.93 12.3594V12.7578H299.32V12.9453H301.734L303.562 13.9531L303.352 14.1641V14.3516C304.023 14.3516 304.359 14.4922 304.359 14.7734C304.359 15.2578 301.875 15.7891 296.906 16.3672C295.219 16.3672 292.008 17.3047 287.273 19.1797L285.047 23.6094H285.258C285.977 23.3438 288.055 23.1406 291.492 23L291.891 23.6094L291.281 23.8203V24.0078C292.359 24.0078 292.898 24.1406 292.898 24.4062L291.891 24.8281V25.0156H292.289L292.102 25.625C292.102 26.2969 292.633 26.8359 293.695 27.2422V27.4297L293.508 27.6406V27.8281C294.18 27.8281 294.516 27.9688 294.516 28.25V28.4375C294.516 28.8438 290.289 29.9141 281.836 31.6484C280.789 31.6484 279.445 33.6641 277.805 37.6953L292.289 35.2812V35.6797H292.5L293.508 35.4688C293.68 36.1406 294.016 36.4766 294.516 36.4766V37.0859C294.188 37.0859 293.852 37.2891 293.508 37.6953H293.086V37.8828H294.305V38.3047H293.297L293.508 38.4922V38.7031L293.297 38.8906C295.281 38.8906 296.352 39.2266 296.508 39.8984L296.32 40.1094C296.992 40.2031 297.328 40.4062 297.328 40.7188C296.141 41.4844 292.117 42.4844 285.258 43.7188C277.211 45.0781 273.188 46.2891 273.188 47.3516C273 48.0547 272.398 48.6562 271.383 49.1562H271.172L269.977 48.1484H269.555L268.547 48.3594C268.547 48.0156 267.883 47.6797 266.555 47.3516L265.945 47.5391L265.734 47.3516V47.1406L265.945 46.5312H265.547L265.336 46.7422H265.148L264.938 46.5312V46.3438C266.047 42.3594 271.008 31.0938 279.82 12.5469C279.82 11.2031 280.758 10.3984 282.633 10.1328L290.484 10.3438L298.336 9.73438ZM318.633 9.92188C322.398 9.92188 324.703 11.0391 325.547 13.2734C326.031 15.2578 326.617 19.1953 327.305 25.0859L327.516 25.2969C327.594 26.2188 327.789 26.6797 328.102 26.6797L334.406 25.8828V26.2812H334.617L337.758 26.0938V26.4688L336.375 26.8672V27.0781H337.758L339.141 26.8672V27.2656C337.797 27.7969 336.75 28.0625 336 28.0625V28.4609L336.984 28.25C337.891 28.5156 338.344 28.7812 338.344 29.0469L339.352 28.8359C341.977 28.9141 343.289 29.1797 343.289 29.6328L343.078 29.8203L344.461 30.2188V30.6172C342.68 31.5391 339 32.3281 333.422 32.9844L329.883 33.5703C331.586 40.2578 332.438 44.7969 332.438 47.1875V47.9609L331.852 48.5703H331.641C331.203 48.5703 330.75 48.3672 330.281 47.9609V48.5703H329.883V48.1719L329.273 48.5703L328.5 47.9609L326.531 48.7578L324.938 47.1875C324.281 46.125 323.297 42.2422 321.984 35.5391H321.797C313.516 37.8203 309.375 39.6016 309.375 40.8828C308.844 41.2109 307.266 43.2422 304.641 46.9766C303.734 48.0391 303.008 48.5703 302.461 48.5703L302.062 47.5859L301.875 47.7734H301.688C300.891 47.3047 300.492 46.7812 300.492 46.2031L300.305 46.3906H299.906V45.9922C299.359 45.9922 298.836 45.6016 298.336 44.8203C297.805 44.8203 297.539 44.6875 297.539 44.4219V43.0391C297.539 41.5703 299.117 39.1406 302.273 35.75C303.617 33.5156 305.789 30.4219 308.789 26.4688L315.492 14.6562L316.852 10.6953C317.555 10.1797 318.148 9.92188 318.633 9.92188ZM317.062 29.0469V29.2344C319.297 28.6562 320.414 28.2656 320.414 28.0625L319.828 24.8984C319.469 25.0547 318.547 26.4375 317.062 29.0469ZM335.391 25.6953H335.789V26.0938H335.391V25.6953ZM335.602 27.0781V27.2656H336V27.0781H335.602ZM352.758 8.30469H354.586C363.695 8.30469 369.07 11.2969 370.711 17.2812L370.922 18.5234V19.1328C370.922 20.9297 366.836 23.9219 358.664 28.1094C360.711 36.7812 361.734 42.8359 361.734 46.2734L361.945 46.4844V46.6719L361.734 47.3047L361.945 49.1328L361.734 49.3438H361.336C361.336 48.7969 361.195 48.5234 360.914 48.5234C360.914 48.9297 360.781 49.1328 360.516 49.1328H360.094L359.906 48.9219H359.695C359.492 49.4688 359.289 49.7422 359.086 49.7422L358.055 49.5312L357.656 49.9531C357.562 49.2656 357.219 48.9219 356.625 48.9219C354.453 43.8594 352.555 38.0078 350.93 31.3672L341.742 34.4375C340.898 36.3594 340.219 37.4453 339.703 37.6953L339.492 38.7266H338.883L339.703 36.4766V36.2656H339.492L338.461 38.5156L338.883 38.9375C338.367 38.9375 337.344 40.3594 335.812 43.2031C335.625 43.2188 335.219 44.1094 334.594 45.875C334.312 45.875 333.633 47.2344 332.555 49.9531H332.344C332.344 49.3281 331.664 48.7812 330.305 48.3125L329.906 48.7344C329.906 48.4531 329.695 48.3125 329.273 48.3125L328.664 48.5234C328.367 47.7891 327.961 47.3828 327.445 47.3047V46.6719C327.445 43.375 331.188 34.2578 338.672 19.3203C335.812 17.3828 334.383 15.8203 334.383 14.6328V13.625C334.492 12.9062 337.008 11.6797 341.93 9.94531C342.617 8.85156 346.227 8.30469 352.758 8.30469ZM346.219 24.4297H346.641C354.812 20.9297 359.773 18.1406 361.523 16.0625V15.8516L357.445 15.6641H357.047C351.875 15.6641 349.289 16.2734 349.289 17.4922C347.68 21.6016 346.656 23.9141 346.219 24.4297Z" fill="url(#paint0_linear_335_44)"/>
<rect x="434.75" y="31.75" width="15.5" height="15.5" transform="rotate(180 434.75 31.75)" stroke="#152230" stroke-width="2.5"/>
<rect x="412.75" y="53.75" width="15.5" height="15.5" transform="rotate(180 412.75 53.75)" stroke="#152230" stroke-width="2.5"/>
<rect x="412.75" y="31.75" width="15.5" height="15.5" transform="rotate(180 412.75 31.75)" stroke="#152230" stroke-width="2.5"/>
<defs>
<linearGradient id="paint0_linear_335_44" x1="72" y1="27.5" x2="364" y2="27.5" gradientUnits="userSpaceOnUse">
<stop stop-color="#9062D4"/>
<stop offset="1" stop-color="#152230"/>
</linearGradient>
</defs>
</svg>
